Results
version=1
nRows=24
nColumns=24
inDegrees=yes
endheader
time	pelvis_tilt	pelvis_list	pelvis_rotation	pelvis_tx	pelvis_ty	pelvis_tz	hip_flexion_r	hip_adduction_r	hip_rotation_r	knee_angle_r	ankle_angle_r	subtalar_angle_r	mtp_angle_r	hip_flexion_l	hip_adduction_l	hip_rotation_l	knee_angle_l	ankle_angle_l	subtalar_angle_l	mtp_angle_l	lumbar_extension	lumbar_bending	lumbar_rotation
      0.61200000	     -9.73915247	      1.89279730	     12.52445730	     -0.73868139	      0.86768729	      0.26465146	     39.57582987	     -6.09326581	     -9.80945996	     -7.20721493	      2.74920628	     -0.09826842	      5.88161776	    -11.70420174	      1.69660484	      7.79043881	     -9.88346399	     12.26824962	      4.67494451	     18.52333189	      3.66690714	     -5.28983541	    -14.82576383
      0.61616667	     -9.75817815	      1.77979573	     12.54323923	     -0.73271188	      0.86673227	      0.26500793	     39.65446122	     -5.92468122	     -9.77630301	     -7.84029849	      2.58459811	     -0.23961957	      5.86385969	    -11.82294175	      1.48485826	      7.74311656	    -10.33679945	     12.08771336	      4.65842462	     18.53993912	      3.73203528	     -5.11157128	    -14.80042131
      0.62033333	     -9.84432377	      1.65103643	     12.54909797	     -0.72671146	      0.86570026	      0.26544164	     39.77620668	     -5.72477715	     -9.60812575	     -8.42212167	      2.26188545	     -0.60467879	      5.83361546	    -11.81655211	      1.26400384	      7.56340134	    -10.89365755	     11.93782759	      4.89233219	     18.64278006	      3.90815658	     -4.89789398	    -14.67270385
      0.62450000	     -9.86641225	      1.51902614	     12.53857798	     -0.72064526	      0.86480469	      0.26589593	     39.82837681	     -5.50321304	     -9.51070632	     -9.01993399	      1.92390571	     -0.91730869	      5.82738214	    -11.87872022	      1.02858193	      7.37870838	    -11.44902559	     11.73528394	      5.06220976	     18.78003245	      3.99428155	     -4.67657922	    -14.57255804
      0.62866667	     -9.88209210	      1.38604744	     12.51489850	     -0.71453193	      0.86394228	      0.26639679	     39.87293619	     -5.26563086	     -9.40365891	     -9.62904356	      1.50914529	     -1.35625813	      5.85362791	    -11.94049449	      0.78865390	      7.16420645	    -12.02367935	     11.56473209	      5.27761813	     19.05587050	      4.08793363	     -4.47199488	    -14.43841938
      0.63283333	     -9.92235990	      1.23890967	     12.48001302	     -0.70836664	      0.86308923	      0.26692516	     39.93349097	     -5.00899372	     -9.29149490	    -10.22323596	      1.04270591	     -1.76966528	      5.91124401	    -11.96512517	      0.54537988	      6.98277517	    -12.61315635	     11.29508689	      5.39547708	     19.37803559	      4.20928364	     -4.24005530	    -14.31168544
      0.63700000	     -9.95612388	      1.08903242	     12.43540295	     -0.70215946	      0.86227504	      0.26747115	     39.99590919	     -4.74870302	     -9.22137176	    -10.84697864	      0.59145991	     -2.09124637	      6.89287625	    -11.96159813	      0.29188892	      6.70025950	    -13.26244740	     10.96334867	      5.56244012	     23.25964060	      4.32114440	     -3.99713534	    -14.23368766
      0.64116667	    -10.00036546	      0.92985507	     12.38251867	     -0.69588267	      0.86153670	      0.26802474	     40.03805320	     -4.46849273	     -9.12091767	    -11.40716986	      0.01238616	     -2.48118168	      6.89075173	    -11.98204201	      0.05039970	      6.60924102	    -13.84258503	     10.50420847	      5.48892815	     23.30236626	      4.47260150	     -3.72675434	    -14.09500642
      0.64533333	    -10.03484505	      0.76179090	     12.30650395	     -0.68958379	      0.86081401	      0.26866651	     40.08741668	     -4.15430315	     -8.97328712	    -12.00211429	     -0.61850515	     -3.11770883	      6.92128394	    -11.97792581	     -0.20774932	      6.42134107	    -14.49748975	     10.17079218	      5.54582626	     23.43732616	      4.58882658	     -3.48210820	    -13.89602818
      0.64950000	    -10.08221559	      0.58571830	     12.22566010	     -0.68324497	      0.86012715	      0.26931195	     40.14796193	     -3.83713988	     -8.85054773	    -12.59768411	     -1.24478343	     -3.64268334	      6.97997565	    -11.93649970	     -0.47086286	      6.21482039	    -15.18871286	      9.73329741	      5.60335475	     23.64023376	      4.73421333	     -3.20719801	    -13.72133066
      0.65366667	    -10.13500258	      0.39746085	     12.13641824	     -0.67687353	      0.85947203	      0.26997526	     40.21964547	     -3.50628464	     -8.72810916	    -13.20563947	     -1.88128038	     -4.17914821	      7.06378427	    -11.86723803	     -0.74236431	      6.01330913	    -15.92413676	      9.26320927	      5.64500256	     23.91740791	      4.88539305	     -2.91945116	    -13.54605379
      0.65783333	    -10.15973652	      0.19890266	     12.03526677	     -0.67047004	      0.85891598	      0.27068142	     40.25159203	     -3.14930343	     -8.58121875	    -13.79582499	     -2.50414021	     -4.72838656	      7.26632719	    -11.79241054	     -1.03312763	      5.76287263	    -16.71660622	      8.75460820	      5.71463411	     24.54640330	      4.99091034	     -2.60723884	    -13.34170618
      0.66200000	    -10.24252669	     -0.01347762	     11.93526553	     -0.66400347	      0.85829797	      0.27135347	     40.38597965	     -2.81246686	     -8.53881151	    -14.48852240	     -3.06873698	     -5.14564221	      8.42603545	    -11.64651423	     -1.32678948	      5.51670180	    -17.50948157	      8.21704858	      5.78099038	     28.25982782	      5.22241000	     -2.27714436	    -13.18842721
      0.66616667	    -10.31863541	     -0.19126166	     11.81810955	     -0.65754418	      0.85777803	      0.27203471	     40.51349165	     -2.49422377	     -8.42640195	    -15.19588642	     -3.60200130	     -5.54456069	      8.41640944	    -11.52483277	     -1.55582027	      5.42727865	    -18.27928683	      7.51045117	      5.60028707	     28.30198289	      5.39469574	     -1.99569165	    -13.05749664
      0.67033333	    -10.39154731	     -0.39057223	     11.69722287	     -0.65106541	      0.85729302	      0.27274328	     40.64453799	     -2.15344935	     -8.31535458	    -15.92245577	     -4.07572928	     -5.98499935	      8.41337937	    -11.35562610	     -1.81610535	      5.26341537	    -19.13796215	      6.86018889	      5.51069544	     28.37468481	      5.58553396	     -1.68209744	    -12.88044285
      0.67450000	    -10.45228479	     -0.59534641	     11.57103878	     -0.64458986	      0.85686078	      0.27349245	     40.77525502	     -1.79937776	     -8.18970657	    -16.68059255	     -4.56258846	     -6.54396421	      8.41815059	    -11.15290998	     -2.08993512	      5.05499921	    -20.08437702	      6.28678224	      5.50630502	     28.54355810	      5.75685610	     -1.37309477	    -12.64120171
      0.67866667	    -10.51770371	     -0.81047199	     11.43800533	     -0.63808130	      0.85647587	      0.27422571	     40.91906321	     -1.44252911	     -8.08603621	    -17.47347220	     -4.90672529	     -6.92814210	      8.42669052	    -10.92782966	     -2.36905780	      4.85678937	    -21.04733691	      5.58769452	      5.46349297	     28.74069507	      5.93739424	     -1.03440571	    -12.45269610
      0.68283333	    -10.57163891	     -1.03555023	     11.29955142	     -0.63154161	      0.85616166	      0.27494959	     41.05481872	     -1.07731050	     -7.99339335	    -18.29496561	     -5.09235738	     -7.17627144	      8.43052540	    -10.69767957	     -2.65433415	      4.68443694	    -22.02830589	      4.80978019	      5.37168459	     28.86428932	      6.09548651	     -0.66683020	    -12.32459979
      0.68700000	    -10.63191446	     -1.25435914	     11.16186936	     -0.62501568	      0.85588103	      0.27567966	     41.20908675	     -0.72068461	     -7.89750575	    -19.15379959	     -5.24301483	     -7.46531398	      8.43044308	    -10.41652300	     -2.93321544	      4.49513420	    -23.08456089	      4.03932489	      5.29395106	     29.00165728	      6.26710322	     -0.31961894	    -12.16215930
      0.69116667	    -10.66723310	     -1.48835088	     11.02260547	     -0.61850868	      0.85566253	      0.27644361	     41.33888608	     -0.34186870	     -7.80517789	    -20.01874699	     -5.36990965	     -7.80210559	      8.33420623	    -10.10584631	     -3.25063711	      4.22106145	    -24.22544259	      3.30659507	      5.28169442	     32.88718137	      6.40795790	      0.04043791	    -11.94499333
      0.69533333	    -10.69821510	     -1.71192249	     10.87693075	     -0.61197162	      0.85552300	      0.27716394	     41.46461768	      0.02205974	     -7.72613027	    -20.91281028	     -5.31743177	     -7.96616677	      8.33306610	     -9.80481483	     -3.53513271	      4.04063120	    -25.34915774	      2.42913123	      5.14340745	     32.88790589	      6.53754691	      0.40876819	    -11.83132406
      0.69950000	    -10.75199232	     -1.92794476	     10.73123509	     -0.60548355	      0.85536905	      0.27789654	     41.62187666	      0.37432422	     -7.64606597	    -21.82684771	     -5.25196570	     -8.14597469	      8.31635949	     -9.42464654	     -3.81644085	      3.81746723	    -26.56746697	      1.61970477	      5.08959788	     32.91178141	      6.70090315	      0.74973507	    -11.62621882
      0.70366667	    -10.75664668	     -2.15985407	     10.58498366	     -0.59896736	      0.85535783	      0.27860736	     41.70493690	      0.75074719	     -7.57333856	    -22.71257801	     -5.05301141	     -8.26270759	      8.30451411	     -9.07711836	     -4.11947638	      3.61197957	    -27.79363161	      0.70185668	      4.96813519	     32.92503233	      6.79542854	      1.13952323	    -11.50882614
      0.70783333	    -10.76182280	     -2.38782546	     10.43708651	     -0.59248098	      0.85537471	      0.27931922	     41.78383270	      1.12307451	     -7.51157353	    -23.59621092	     -4.80439160	     -8.34996821	      8.28712839	     -8.69317424	     -4.42293546	      3.38810175	    -29.07521898	     -0.20072057	      4.86104372	     32.93810859	      6.89428856	      1.51771971	    -11.37393938
